<svg aria-hidden="true" style="position: absolute; width: 0; height: 0; overflow: hidden;" version="1.1" xmlns="http://www.w3.org/2000/svg" xmlns:xlink="http://www.w3.org/1999/xlink">
<defs>
<symbol id="icon-footer-eng-usa" viewBox="0 0 62 32">
<path fill="#fcfaf6" style="fill: var(--color1, #fcfaf6)" d="M0 19.698h61.538v2.452h-61.538v-2.452zM0 27.077h61.538v-2.453h-61.538v2.453zM0 32h61.538v-2.452h-61.538v2.452zM61.538 2.452v-2.452h-61.538v17.226h61.538v-2.452h-36.923v-2.474h36.923v-2.449h-36.923v-2.474h36.923v-2.452h-36.923v-2.474h36.923z"></path>
<path fill="none" stroke="#fcfaf6" style="stroke: var(--color1, #fcfaf6)" stroke-linejoin="miter" stroke-linecap="butt" stroke-miterlimit="4" stroke-width="0.6154" d="M0.308 0.308h60.923v31.385h-60.923v-31.385z"></path>
</symbol>
<symbol id="icon-footer-eng-can" viewBox="0 0 62 32">
<path fill="#fcfaf6" style="fill: var(--color1, #fcfaf6)" opacity="0.7" d="M15.385 32h-15.385v-32h15.385v32zM46.154 0v32h15.385v-32h-15.385zM30.769 2.892l-2.092 3.918c-0.246 0.431-0.656 0.39-1.087 0.144l-1.538-0.8 1.127 6.010c0.246 1.108-0.533 1.108-0.902 0.615l-2.646-2.974-0.431 1.518c-0.041 0.206-0.267 0.41-0.594 0.348l-3.365-0.697 0.882 3.2c0.185 0.718 0.329 1.004-0.185 1.189l-1.19 0.554 5.765 4.698c0.225 0.185 0.348 0.492 0.266 0.779l-0.512 1.662c1.989-0.225 3.774-0.574 5.764-0.779 0.185-0.021 0.471 0.267 0.471 0.471l-0.266 6.073h0.964l-0.144-6.073c0-0.204 0.267-0.512 0.452-0.492 1.99 0.206 3.775 0.554 5.764 0.78l-0.512-1.662c-0.037-0.142-0.032-0.291 0.015-0.43s0.135-0.261 0.251-0.35l5.765-4.697-1.19-0.554c-0.533-0.185-0.369-0.492-0.185-1.19l0.882-3.2-3.365 0.738c-0.327 0.041-0.554-0.164-0.594-0.348l-0.431-1.519-2.646 2.975c-0.369 0.471-1.148 0.471-0.902-0.615l1.127-6.031-1.518 0.779c-0.431 0.246-0.862 0.288-1.087-0.143l-2.113-3.898z"></path>
</symbol>
<symbol id="icon-inval" viewBox="0 0 28 32">
<path d="M11.688 0c-1.663 0-3.011 1.349-3.011 3.011s1.348 3.011 3.011 3.011c1.662 0 3.011-1.348 3.011-3.011s-1.348-3.011-3.011-3.011zM10.066 6.222c-1.773 0.004-2.1 1.12-2.1 2.033v10.744c0 0.924 0.744 1.67 1.667 1.667l7.633-0.034c0 0 2.628 3.98 3.944 5.966 0.395 0.596 0.919 1.122 1.677 1.122 1 0 1.921-0.816 1.811-1.811-0.041-0.39-0.13-0.76-0.366-1.111-1.174-1.75-3.5-5.535-4.778-6.956-0.324-0.361-0.773-0.624-1.3-0.623l-6.311 0.022v-6.688l4.5 3.111c0.649 0.447 1.53 0.282 1.977-0.367 0.448-0.649 0.283-1.53-0.367-1.978 0 0-4.679-3.228-7.022-4.844-0.244-0.168-0.694-0.256-0.967-0.256zM27.465 9.233c-0.108 0-0.217 0.039-0.3 0.122l-5.611 5.611h-7.955c-0.235 0-0.422 0.188-0.422 0.422v0.155c0 0.235 0.187 0.422 0.422 0.422h8.177c0.127 0 0.25-0.049 0.322-0.122l5.778-5.778c0.166-0.166 0.166-0.434 0-0.6l-0.111-0.111c-0.082-0.083-0.192-0.122-0.299-0.122zM7.166 12.167c-4.122 1.239-7.166 5.080-7.166 9.699 0 5.64 4.559 10.134 10.044 10.134 4.202 0 7.861-2.631 9.344-6.4l-1.511-2.278c-0.685 3.619-3.881 6.412-7.833 6.412-4.466 0-7.977-3.572-7.977-7.867 0-3.312 2.097-6.19 5.099-7.333v-2.366h-0.001z"></path>
</symbol>
<symbol id="icon-email-black" viewBox="0 0 32 32">
<path d="M26.667 5.333h-21.333c-1.467 0-2.653 1.2-2.653 2.667l-0.013 16c0 1.467 1.2 2.667 2.667 2.667h21.333c1.467 0 2.667-1.2 2.667-2.667v-16c0-1.467-1.2-2.667-2.667-2.667zM26.133 11l-9.427 5.893c-0.427 0.267-0.987 0.267-1.413 0l-9.427-5.893c-0.333-0.213-0.533-0.573-0.533-0.96 0-0.893 0.973-1.427 1.733-0.96l8.933 5.587 8.933-5.587c0.76-0.467 1.733 0.067 1.733 0.96 0 0.387-0.2 0.747-0.533 0.96z"></path>
</symbol>
<symbol id="icon-person-black" viewBox="0 0 32 32">
<path d="M16 16c2.947 0 5.333-2.387 5.333-5.333s-2.387-5.333-5.333-5.333c-2.947 0-5.333 2.387-5.333 5.333s2.387 5.333 5.333 5.333zM16 18.667c-3.56 0-10.667 1.787-10.667 5.333v1.333c0 0.733 0.6 1.333 1.333 1.333h18.667c0.733 0 1.333-0.6 1.333-1.333v-1.333c0-3.547-7.107-5.333-10.667-5.333z"></path>
</symbol>
<symbol id="icon-phone-black" viewBox="0 0 32 32">
<path d="M24.882 19.773l-3.268-0.373c-0.785-0.090-1.557 0.18-2.11 0.733l-2.367 2.367c-3.641-1.853-6.626-4.825-8.478-8.478l2.38-2.38c0.553-0.553 0.823-1.325 0.733-2.11l-0.373-3.242c-0.154-1.299-1.248-2.277-2.56-2.277h-2.226c-1.454 0-2.663 1.209-2.573 2.663 0.682 10.987 9.469 19.761 20.443 20.443 1.454 0.090 2.663-1.119 2.663-2.573v-2.226c0.013-1.3-0.965-2.393-2.264-2.547z"></path>
</symbol>
</defs>
</svg>
